<mxfile host="app.diagrams.net" agent="Mozilla/5.0 (Windows NT 10.0; Win64; x64) AppleWebKit/537.36 (KHTML, like Gecko) Chrome/128.0.0.0 Safari/537.36" version="24.7.16">
  <diagram name="第 1 页" id="I6HzbgRqYaL7D89AQCAA">
    <mxGraphModel dx="2389" dy="810" grid="1" gridSize="10" guides="1" tooltips="1" connect="1" arrows="1" fold="1" page="1" pageScale="1" pageWidth="827" pageHeight="1169" math="0" shadow="0">
      <root>
        <mxCell id="0" />
        <mxCell id="1" parent="0" />
        <mxCell id="13KhJUJlgBIPe4FAGYMy-18" style="edgeStyle=none;rounded=0;orthogonalLoop=1;jettySize=auto;html=1;exitX=1;exitY=0.5;exitDx=0;exitDy=0;entryX=0;entryY=0.5;entryDx=0;entryDy=0;" edge="1" parent="1" source="13KhJUJlgBIPe4FAGYMy-4" target="13KhJUJlgBIPe4FAGYMy-12">
          <mxGeometry relative="1" as="geometry" />
        </mxCell>
        <mxCell id="13KhJUJlgBIPe4FAGYMy-4" value="" style="whiteSpace=wrap;html=1;aspect=fixed;" vertex="1" parent="1">
          <mxGeometry x="80" y="160" width="80" height="80" as="geometry" />
        </mxCell>
        <mxCell id="13KhJUJlgBIPe4FAGYMy-19" style="edgeStyle=none;rounded=0;orthogonalLoop=1;jettySize=auto;html=1;exitX=1;exitY=0.5;exitDx=0;exitDy=0;entryX=0;entryY=0.5;entryDx=0;entryDy=0;" edge="1" parent="1" source="13KhJUJlgBIPe4FAGYMy-12" target="13KhJUJlgBIPe4FAGYMy-13">
          <mxGeometry relative="1" as="geometry" />
        </mxCell>
        <mxCell id="13KhJUJlgBIPe4FAGYMy-12" value="" style="whiteSpace=wrap;html=1;aspect=fixed;" vertex="1" parent="1">
          <mxGeometry x="230" y="160" width="80" height="80" as="geometry" />
        </mxCell>
        <mxCell id="13KhJUJlgBIPe4FAGYMy-20" value="" style="edgeStyle=none;rounded=0;orthogonalLoop=1;jettySize=auto;html=1;" edge="1" parent="1" source="13KhJUJlgBIPe4FAGYMy-13" target="13KhJUJlgBIPe4FAGYMy-14">
          <mxGeometry relative="1" as="geometry" />
        </mxCell>
        <mxCell id="13KhJUJlgBIPe4FAGYMy-13" value="" style="whiteSpace=wrap;html=1;aspect=fixed;" vertex="1" parent="1">
          <mxGeometry x="380" y="160" width="80" height="80" as="geometry" />
        </mxCell>
        <mxCell id="13KhJUJlgBIPe4FAGYMy-21" value="" style="edgeStyle=none;rounded=0;orthogonalLoop=1;jettySize=auto;html=1;" edge="1" parent="1" source="13KhJUJlgBIPe4FAGYMy-14" target="13KhJUJlgBIPe4FAGYMy-15">
          <mxGeometry relative="1" as="geometry" />
        </mxCell>
        <mxCell id="13KhJUJlgBIPe4FAGYMy-14" value="环路入口" style="whiteSpace=wrap;html=1;aspect=fixed;" vertex="1" parent="1">
          <mxGeometry x="530" y="160" width="80" height="80" as="geometry" />
        </mxCell>
        <mxCell id="13KhJUJlgBIPe4FAGYMy-22" value="" style="edgeStyle=none;rounded=0;orthogonalLoop=1;jettySize=auto;html=1;" edge="1" parent="1" source="13KhJUJlgBIPe4FAGYMy-15" target="13KhJUJlgBIPe4FAGYMy-16">
          <mxGeometry relative="1" as="geometry" />
        </mxCell>
        <mxCell id="13KhJUJlgBIPe4FAGYMy-15" value="" style="whiteSpace=wrap;html=1;aspect=fixed;" vertex="1" parent="1">
          <mxGeometry x="680" y="160" width="80" height="80" as="geometry" />
        </mxCell>
        <mxCell id="13KhJUJlgBIPe4FAGYMy-23" value="" style="edgeStyle=none;rounded=0;orthogonalLoop=1;jettySize=auto;html=1;" edge="1" parent="1" source="13KhJUJlgBIPe4FAGYMy-16" target="13KhJUJlgBIPe4FAGYMy-17">
          <mxGeometry relative="1" as="geometry" />
        </mxCell>
        <mxCell id="13KhJUJlgBIPe4FAGYMy-16" value="" style="whiteSpace=wrap;html=1;aspect=fixed;" vertex="1" parent="1">
          <mxGeometry x="680" y="310" width="80" height="80" as="geometry" />
        </mxCell>
        <mxCell id="13KhJUJlgBIPe4FAGYMy-24" value="" style="edgeStyle=none;rounded=0;orthogonalLoop=1;jettySize=auto;html=1;" edge="1" parent="1" source="13KhJUJlgBIPe4FAGYMy-17" target="13KhJUJlgBIPe4FAGYMy-14">
          <mxGeometry relative="1" as="geometry" />
        </mxCell>
        <mxCell id="13KhJUJlgBIPe4FAGYMy-17" value="" style="whiteSpace=wrap;html=1;aspect=fixed;" vertex="1" parent="1">
          <mxGeometry x="530" y="310" width="80" height="80" as="geometry" />
        </mxCell>
        <mxCell id="13KhJUJlgBIPe4FAGYMy-25" value="fast" style="shape=process;whiteSpace=wrap;html=1;backgroundOutline=1;" vertex="1" parent="1">
          <mxGeometry x="470" y="370" width="40" height="20" as="geometry" />
        </mxCell>
        <mxCell id="13KhJUJlgBIPe4FAGYMy-27" value="slow" style="shape=process;whiteSpace=wrap;html=1;backgroundOutline=1;" vertex="1" parent="1">
          <mxGeometry x="470" y="340" width="40" height="20" as="geometry" />
        </mxCell>
        <mxCell id="13KhJUJlgBIPe4FAGYMy-28" value="fast一次走两格" style="text;html=1;align=center;verticalAlign=middle;whiteSpace=wrap;rounded=0;" vertex="1" parent="1">
          <mxGeometry x="160" y="30" width="90" height="30" as="geometry" />
        </mxCell>
        <mxCell id="13KhJUJlgBIPe4FAGYMy-30" value="slow一次走一格" style="text;html=1;align=center;verticalAlign=middle;whiteSpace=wrap;rounded=0;" vertex="1" parent="1">
          <mxGeometry x="160" y="70" width="90" height="30" as="geometry" />
        </mxCell>
        <mxCell id="13KhJUJlgBIPe4FAGYMy-36" value="" style="edgeStyle=none;rounded=0;orthogonalLoop=1;jettySize=auto;html=1;" edge="1" parent="1" source="13KhJUJlgBIPe4FAGYMy-34" target="13KhJUJlgBIPe4FAGYMy-4">
          <mxGeometry relative="1" as="geometry" />
        </mxCell>
        <mxCell id="13KhJUJlgBIPe4FAGYMy-34" value="" style="whiteSpace=wrap;html=1;aspect=fixed;" vertex="1" parent="1">
          <mxGeometry x="-70" y="160" width="80" height="80" as="geometry" />
        </mxCell>
        <mxCell id="13KhJUJlgBIPe4FAGYMy-43" value="" style="edgeStyle=none;rounded=0;orthogonalLoop=1;jettySize=auto;html=1;" edge="1" parent="1" source="13KhJUJlgBIPe4FAGYMy-42" target="13KhJUJlgBIPe4FAGYMy-34">
          <mxGeometry relative="1" as="geometry" />
        </mxCell>
        <mxCell id="13KhJUJlgBIPe4FAGYMy-42" value="" style="whiteSpace=wrap;html=1;aspect=fixed;" vertex="1" parent="1">
          <mxGeometry x="-220" y="160" width="80" height="80" as="geometry" />
        </mxCell>
        <mxCell id="13KhJUJlgBIPe4FAGYMy-52" value="起点" style="ellipse;whiteSpace=wrap;html=1;aspect=fixed;" vertex="1" parent="1">
          <mxGeometry x="140" y="590" width="30" height="30" as="geometry" />
        </mxCell>
        <mxCell id="13KhJUJlgBIPe4FAGYMy-64" style="edgeStyle=orthogonalEdgeStyle;curved=1;rounded=0;orthogonalLoop=1;jettySize=auto;html=1;exitX=0;exitY=1;exitDx=0;exitDy=0;entryX=0;entryY=0;entryDx=0;entryDy=0;endArrow=none;endFill=0;" edge="1" parent="1" source="13KhJUJlgBIPe4FAGYMy-53" target="13KhJUJlgBIPe4FAGYMy-54">
          <mxGeometry relative="1" as="geometry" />
        </mxCell>
        <mxCell id="13KhJUJlgBIPe4FAGYMy-69" value="z" style="edgeLabel;html=1;align=center;verticalAlign=middle;resizable=0;points=[];" vertex="1" connectable="0" parent="13KhJUJlgBIPe4FAGYMy-64">
          <mxGeometry x="0.3214" y="20" relative="1" as="geometry">
            <mxPoint as="offset" />
          </mxGeometry>
        </mxCell>
        <mxCell id="13KhJUJlgBIPe4FAGYMy-65" style="edgeStyle=orthogonalEdgeStyle;curved=1;rounded=0;orthogonalLoop=1;jettySize=auto;html=1;exitX=0.5;exitY=1;exitDx=0;exitDy=0;entryX=1;entryY=0.5;entryDx=0;entryDy=0;endArrow=none;endFill=0;" edge="1" parent="1" source="13KhJUJlgBIPe4FAGYMy-53" target="13KhJUJlgBIPe4FAGYMy-54">
          <mxGeometry relative="1" as="geometry" />
        </mxCell>
        <mxCell id="13KhJUJlgBIPe4FAGYMy-68" value="y" style="edgeLabel;html=1;align=center;verticalAlign=middle;resizable=0;points=[];" vertex="1" connectable="0" parent="13KhJUJlgBIPe4FAGYMy-65">
          <mxGeometry x="-0.2677" y="-14" relative="1" as="geometry">
            <mxPoint as="offset" />
          </mxGeometry>
        </mxCell>
        <mxCell id="13KhJUJlgBIPe4FAGYMy-53" value="环路入口" style="ellipse;whiteSpace=wrap;html=1;aspect=fixed;" vertex="1" parent="1">
          <mxGeometry x="500" y="590" width="30" height="30" as="geometry" />
        </mxCell>
        <mxCell id="13KhJUJlgBIPe4FAGYMy-54" value="相遇" style="ellipse;whiteSpace=wrap;html=1;aspect=fixed;" vertex="1" parent="1">
          <mxGeometry x="380" y="760" width="30" height="30" as="geometry" />
        </mxCell>
        <mxCell id="13KhJUJlgBIPe4FAGYMy-56" value="" style="endArrow=none;html=1;rounded=0;exitX=1;exitY=0.5;exitDx=0;exitDy=0;entryX=0;entryY=0.5;entryDx=0;entryDy=0;" edge="1" parent="1" source="13KhJUJlgBIPe4FAGYMy-52" target="13KhJUJlgBIPe4FAGYMy-53">
          <mxGeometry width="50" height="50" relative="1" as="geometry">
            <mxPoint x="400" y="640" as="sourcePoint" />
            <mxPoint x="450" y="590" as="targetPoint" />
          </mxGeometry>
        </mxCell>
        <mxCell id="13KhJUJlgBIPe4FAGYMy-67" value="x" style="text;html=1;align=center;verticalAlign=middle;whiteSpace=wrap;rounded=0;" vertex="1" parent="1">
          <mxGeometry x="290" y="570" width="60" height="30" as="geometry" />
        </mxCell>
        <mxCell id="13KhJUJlgBIPe4FAGYMy-72" value="x=z" style="text;html=1;align=center;verticalAlign=middle;resizable=0;points=[];autosize=1;strokeColor=none;fillColor=none;" vertex="1" parent="1">
          <mxGeometry x="160" y="710" width="40" height="30" as="geometry" />
        </mxCell>
        <mxCell id="13KhJUJlgBIPe4FAGYMy-73" value="1.求出相遇点&lt;div&gt;2.得到环路入口&lt;/div&gt;" style="text;html=1;align=center;verticalAlign=middle;resizable=0;points=[];autosize=1;strokeColor=none;fillColor=none;" vertex="1" parent="1">
          <mxGeometry x="140" y="760" width="110" height="40" as="geometry" />
        </mxCell>
      </root>
    </mxGraphModel>
  </diagram>
</mxfile>
